<mxfile host="65bd71144e">
    <diagram id="mSSItPkg49ir_ZgxcZMZ" name="Page-1">
        <mxGraphModel dx="1008" dy="523" grid="1" gridSize="10" guides="1" tooltips="1" connect="1" arrows="1" fold="1" page="1" pageScale="1" pageWidth="850" pageHeight="1100" math="0" shadow="0">
            <root>
                <mxCell id="0"/>
                <mxCell id="1" parent="0"/>
                <mxCell id="2" value="FRONT END" style="rounded=1;whiteSpace=wrap;html=1;" parent="1" vertex="1">
                    <mxGeometry x="220" y="190" width="430" height="120" as="geometry"/>
                </mxCell>
                <mxCell id="3" value="AI ASSISTANT" style="rounded=1;whiteSpace=wrap;html=1;" parent="1" vertex="1">
                    <mxGeometry x="515" y="230" width="120" height="60" as="geometry"/>
                </mxCell>
                <mxCell id="6" value="&lt;span&gt;MACHINE LEARNING ENGINE&lt;/span&gt;&lt;br&gt;&lt;span&gt;(RASA CORE)&lt;/span&gt;" style="shape=cylinder3;whiteSpace=wrap;html=1;boundedLbl=1;backgroundOutline=1;size=15;" parent="1" vertex="1">
                    <mxGeometry x="525" y="330" width="110" height="120" as="geometry"/>
                </mxCell>
                <mxCell id="19" value="" style="edgeStyle=none;html=1;startArrow=block;" edge="1" parent="1" source="7" target="6">
                    <mxGeometry relative="1" as="geometry"/>
                </mxCell>
                <mxCell id="7" value="&lt;span&gt;ACTIONS SERVER&lt;/span&gt;" style="shape=cylinder3;whiteSpace=wrap;html=1;boundedLbl=1;backgroundOutline=1;size=15;" parent="1" vertex="1">
                    <mxGeometry x="535" y="500" width="90" height="120" as="geometry"/>
                </mxCell>
                <mxCell id="8" value="BACKEND SERVER" style="shape=cylinder3;whiteSpace=wrap;html=1;boundedLbl=1;backgroundOutline=1;size=15;" parent="1" vertex="1">
                    <mxGeometry x="230" y="670" width="415" height="120" as="geometry"/>
                </mxCell>
                <mxCell id="9" value="MYSQL DB SERVER" style="shape=datastore;whiteSpace=wrap;html=1;" parent="1" vertex="1">
                    <mxGeometry x="230" y="840" width="150" height="130" as="geometry"/>
                </mxCell>
                <mxCell id="10" value="3RD PARTY GATEWAYS&lt;br&gt;(PAYMENTS - PAYNOW)&lt;br&gt;EMAILS - SMTP SERVER" style="ellipse;shape=cloud;whiteSpace=wrap;html=1;" parent="1" vertex="1">
                    <mxGeometry x="450" y="830" width="230" height="150" as="geometry"/>
                </mxCell>
                <mxCell id="11" value="" style="shape=flexArrow;endArrow=classic;html=1;fillColor=#0050ef;strokeColor=none;startArrow=block;" parent="1" edge="1">
                    <mxGeometry width="50" height="50" relative="1" as="geometry">
                        <mxPoint x="310" y="300" as="sourcePoint"/>
                        <mxPoint x="310" y="690" as="targetPoint"/>
                    </mxGeometry>
                </mxCell>
                <mxCell id="12" value="" style="shape=flexArrow;endArrow=classic;html=1;fillColor=#008a00;strokeColor=#005700;startArrow=block;" parent="1" edge="1">
                    <mxGeometry width="50" height="50" relative="1" as="geometry">
                        <mxPoint x="579.79" y="280" as="sourcePoint"/>
                        <mxPoint x="579.79" y="350" as="targetPoint"/>
                    </mxGeometry>
                </mxCell>
                <mxCell id="13" value="" style="shape=flexArrow;endArrow=classic;html=1;fillColor=#008a00;strokeColor=#005700;startArrow=block;" parent="1" edge="1">
                    <mxGeometry width="50" height="50" relative="1" as="geometry">
                        <mxPoint x="579.79" y="450" as="sourcePoint"/>
                        <mxPoint x="579.79" y="520" as="targetPoint"/>
                    </mxGeometry>
                </mxCell>
                <mxCell id="14" value="" style="shape=flexArrow;endArrow=classic;html=1;fillColor=#008a00;strokeColor=#005700;startArrow=block;" parent="1" edge="1">
                    <mxGeometry width="50" height="50" relative="1" as="geometry">
                        <mxPoint x="579.79" y="620" as="sourcePoint"/>
                        <mxPoint x="579.79" y="690" as="targetPoint"/>
                    </mxGeometry>
                </mxCell>
                <mxCell id="15" value="" style="shape=flexArrow;endArrow=classic;html=1;fillColor=#e3c800;strokeColor=#B09500;startArrow=block;" parent="1" edge="1">
                    <mxGeometry width="50" height="50" relative="1" as="geometry">
                        <mxPoint x="304.78999999999996" y="790" as="sourcePoint"/>
                        <mxPoint x="304.78999999999996" y="860" as="targetPoint"/>
                    </mxGeometry>
                </mxCell>
                <mxCell id="16" value="" style="shape=flexArrow;endArrow=classic;html=1;fillColor=#1ba1e2;strokeColor=#006EAF;startArrow=block;" parent="1" edge="1">
                    <mxGeometry width="50" height="50" relative="1" as="geometry">
                        <mxPoint x="579.79" y="790" as="sourcePoint"/>
                        <mxPoint x="579.79" y="860" as="targetPoint"/>
                    </mxGeometry>
                </mxCell>
                <mxCell id="18" value="&lt;h1&gt;MULTISELLER ONLINE SHOPPING WITH AN AI ASSISTANT CHATBOT SYSTEM OVERVIEW&lt;/h1&gt;" style="text;html=1;strokeColor=none;fillColor=none;spacing=5;spacingTop=-20;whiteSpace=wrap;overflow=hidden;rounded=0;align=center;" parent="1" vertex="1">
                    <mxGeometry x="220" y="50" width="455" height="120" as="geometry"/>
                </mxCell>
            </root>
        </mxGraphModel>
    </diagram>
</mxfile>